# xmcd CD database file
#
# Track frame offsets:
#	150
#	29432
#	51112
#	73555
#	97967
#	121185
#	146345
#	169307
#	185865
#	227317
#	255340
#	284715
#
# Disc length: 4054 seconds
#
# Revision: 0
# Processed by: cddbd v1.4PL0 Copyright (c) Steve Scherf et al.
# Submitted via: CDex 1.51
#
DISCID=a60fd40c
DTITLE=Arne Domnerus - Sugar fingers
DYEAR=1900
DGENRE=Jazz
TTITLE0=Bye, bye Blackbird
TTITLE1=Thursday's child
TTITLE2=Flamingo
TTITLE3=Sugar fingers
TTITLE4=Short life
TTITLE5=It could happen to you
TTITLE6=Love man
TTITLE7=Avalon
TTITLE8=That's all
TTITLE9=Jeep's blues
TTITLE10=Tea fot two
TTITLE11=Memories of you
EXTD=
EXTT0=
EXTT1=
EXTT2=
EXTT3=
EXTT4=
EXTT5=
EXTT6=
EXTT7=
EXTT8=
EXTT9=
EXTT10=
EXTT11=
PLAYORDER=
